<svg width="106" height="25" viewBox="0 0 106 25" fill="none" xmlns="http://www.w3.org/2000/svg">
<path d="M19.4368 5.81465C19.2054 5.58953 18.974 5.36442 18.7426 5.1393C18.0484 4.41894 17.308 3.69857 16.3824 3.24834C15.318 2.70807 14.1611 2.84313 13.0041 2.84313C11.2456 2.84313 6.84914 2.84313 4.25757 2.84313L6.01614 5.1393C9.20933 5.1393 14.2074 5.1393 16.5213 5.1393C17.4931 5.1393 18.3261 5.3194 19.1128 5.81465C19.2517 5.85967 19.3905 5.85967 19.4368 5.81465Z" fill="#66C61C"/>
<path d="M21.3805 9.50605C21.1491 9.28093 20.9177 9.05582 20.6863 8.8307C19.9921 8.11034 19.2517 7.38997 18.3261 6.93974C17.2617 6.39947 16.1048 6.53454 14.9478 6.53454C13.4206 6.53454 9.76467 6.53454 7.1731 6.53454L8.93167 8.8307C12.0786 8.8307 16.3824 8.8307 18.5112 8.8307C19.4831 8.8307 20.3161 9.0108 21.1028 9.50605C21.1954 9.55107 21.2879 9.55107 21.3805 9.50605Z" fill="#4CA30D"/>
<path d="M23.5556 13.1076C23.3242 12.8825 23.0928 12.6574 22.8614 12.4323C22.1672 11.7119 21.4268 10.9915 20.5012 10.5413C19.4368 10.001 18.2799 10.1361 17.1229 10.1361C15.6883 10.1361 12.5414 10.1361 9.99609 10.1361L11.7547 12.4323C14.809 12.4323 18.6964 12.4323 20.6401 12.4323C21.6119 12.4323 22.4449 12.6124 23.2316 13.1076C23.3705 13.1526 23.463 13.1977 23.5556 13.1076Z" fill="#3B7C0F"/>
<path d="M4.07251 19.1861C4.3039 19.4112 4.53529 19.6363 4.76668 19.8615C5.46085 20.5818 6.2013 21.3022 7.12686 21.7524C8.19126 22.2927 9.34821 22.1576 10.5052 22.1576H19.2517L17.4932 19.8615C14.3 19.8615 9.30194 19.8615 6.98803 19.8615C6.01619 19.8615 5.18318 19.6814 4.39646 19.1861C4.25762 19.1411 4.16507 19.1411 4.07251 19.1861Z" fill="#66C61C"/>
<path d="M2.12878 15.4947C2.36017 15.7198 2.59157 15.9449 2.82296 16.17C3.51713 16.8904 4.25757 17.6108 5.18314 18.061C6.24753 18.6013 7.40449 18.4662 8.56144 18.4662H16.3362L14.5776 16.17C11.4307 16.17 7.12682 16.17 4.99803 16.17C4.02619 16.17 3.19318 15.99 2.40645 15.4947C2.31389 15.4497 2.22134 15.4497 2.12878 15.4947Z" fill="#4CA30D"/>
<path d="M0 11.8472C0.231391 12.0724 0.462781 12.2975 0.694172 12.5226C1.38834 13.243 2.1288 13.9633 3.05436 14.4136C4.11875 14.9538 5.2757 14.8188 6.43265 14.8188H13.5595L11.8009 12.5226C8.74656 12.5226 4.8592 12.5226 2.91552 12.5226C1.94368 12.5226 1.11067 12.3425 0.323945 11.8472C0.185111 11.8022 0.0925562 11.8022 0 11.8472Z" fill="#3B7C0F"/>
<path d="M28.8727 7.2959V17.7084H31.2261V13.4063H35.7081V11.6271H31.2261V9.2209H36.3976V7.2959H28.8727Z" fill="#101828"/>
<path d="M42.3002 13.1292H38.8376C38.8476 12.9834 38.8775 12.8181 38.9275 12.6334C38.9875 12.4487 39.0824 12.2737 39.2123 12.1084C39.3522 11.9431 39.5321 11.807 39.7519 11.7001C39.9818 11.5834 40.2666 11.5251 40.6064 11.5251C41.126 11.5251 41.5108 11.6612 41.7606 11.9334C42.0204 12.2056 42.2003 12.6042 42.3002 13.1292ZM38.8376 14.4417H44.4288C44.4688 13.8584 44.4188 13.2994 44.2789 12.7646C44.139 12.2299 43.9091 11.7535 43.5894 11.3355C43.2796 10.9174 42.8798 10.5869 42.3902 10.3438C41.9005 10.091 41.3259 9.96465 40.6663 9.96465C40.0767 9.96465 39.5371 10.0667 39.0474 10.2709C38.5677 10.4751 38.153 10.757 37.8033 11.1167C37.4535 11.4667 37.1837 11.8848 36.9938 12.3709C36.8039 12.857 36.709 13.382 36.709 13.9459C36.709 14.5292 36.7989 15.064 36.9788 15.5501C37.1687 16.0362 37.4335 16.4542 37.7733 16.8042C38.1131 17.1542 38.5278 17.4265 39.0174 17.6209C39.5071 17.8056 40.0567 17.898 40.6663 17.898C41.5457 17.898 42.2952 17.7035 42.9148 17.3146C43.5344 16.9258 43.9941 16.2792 44.2939 15.3751H42.4202C42.3502 15.6084 42.1603 15.832 41.8505 16.0459C41.5407 16.2501 41.171 16.3521 40.7413 16.3521C40.1417 16.3521 39.682 16.2015 39.3622 15.9001C39.0424 15.5987 38.8675 15.1126 38.8376 14.4417Z" fill="#101828"/>
<path d="M45.1516 12.4876C45.1816 12.0015 45.3065 11.598 45.5263 11.2771C45.7462 10.9563 46.026 10.6987 46.3658 10.5042C46.7055 10.3098 47.0853 10.1737 47.505 10.0959C47.9347 10.0084 48.3644 9.96465 48.7941 9.96465C49.1839 9.96465 49.5786 9.99382 49.9783 10.0521C50.3781 10.1008 50.7428 10.2028 51.0726 10.3584C51.4024 10.514 51.6722 10.7327 51.8821 11.0146C52.0919 11.2869 52.1968 11.6515 52.1968 12.1084V16.0313C52.1968 16.3716 52.2168 16.6973 52.2568 17.0084C52.2968 17.3195 52.3667 17.5528 52.4667 17.7084H50.3081C50.2681 17.5917 50.2332 17.4751 50.2032 17.3584C50.1832 17.232 50.1682 17.1056 50.1582 16.9792C49.8184 17.3195 49.4187 17.5577 48.959 17.6938C48.4993 17.8299 48.0297 17.898 47.55 17.898C47.1802 17.898 46.8355 17.8542 46.5157 17.7667C46.1959 17.6792 45.9161 17.5431 45.6762 17.3584C45.4364 17.1737 45.2465 16.9403 45.1066 16.6584C44.9767 16.3765 44.9118 16.041 44.9118 15.6521C44.9118 15.2244 44.9867 14.8744 45.1366 14.6021C45.2965 14.3202 45.4964 14.0966 45.7362 13.9313C45.986 13.766 46.2658 13.6445 46.5756 13.5667C46.8954 13.4792 47.2152 13.4112 47.535 13.3626C47.8548 13.314 48.1696 13.2751 48.4794 13.2459C48.7891 13.2167 49.064 13.173 49.3038 13.1146C49.5436 13.0563 49.7335 12.9737 49.8734 12.8667C50.0133 12.7501 50.0783 12.5848 50.0683 12.3709C50.0683 12.1473 50.0283 11.9723 49.9484 11.8459C49.8784 11.7098 49.7785 11.6077 49.6486 11.5396C49.5286 11.4619 49.3837 11.4133 49.2139 11.3938C49.054 11.3646 48.8791 11.3501 48.6892 11.3501C48.2695 11.3501 47.9397 11.4376 47.6999 11.6126C47.46 11.7876 47.3201 12.0792 47.2802 12.4876H45.1516ZM50.0683 14.0188C49.9783 14.0966 49.8634 14.1598 49.7235 14.2084C49.5936 14.2473 49.4487 14.2813 49.2888 14.3105C49.1389 14.3396 48.979 14.364 48.8091 14.3834C48.6392 14.4028 48.4694 14.4271 48.2995 14.4563C48.1396 14.4855 47.9797 14.5244 47.8198 14.573C47.6699 14.6216 47.535 14.6896 47.4151 14.7771C47.3051 14.8549 47.2152 14.957 47.1452 15.0834C47.0753 15.2098 47.0403 15.3702 47.0403 15.5646C47.0403 15.7494 47.0753 15.9049 47.1452 16.0313C47.2152 16.1577 47.3101 16.2598 47.4301 16.3376C47.55 16.4056 47.6899 16.4542 47.8498 16.4834C48.0097 16.5126 48.1746 16.5271 48.3444 16.5271C48.7642 16.5271 49.0889 16.4591 49.3188 16.323C49.5486 16.1869 49.7185 16.0265 49.8284 15.8417C49.9384 15.6473 50.0033 15.4528 50.0233 15.2584C50.0533 15.064 50.0683 14.9084 50.0683 14.7917V14.0188Z" fill="#101828"/>
<path d="M56.0975 10.1688V7.9084H53.9689V10.1688H52.6798V11.5542H53.9689V16.0021C53.9689 16.3813 54.0339 16.6876 54.1638 16.9209C54.2937 17.1542 54.4686 17.3341 54.6884 17.4605C54.9183 17.5869 55.1781 17.6695 55.4679 17.7084C55.7677 17.757 56.0825 17.7813 56.4123 17.7813C56.6221 17.7813 56.837 17.7765 57.0569 17.7667C57.2767 17.757 57.4766 17.7376 57.6564 17.7084V16.1042C57.5565 16.1237 57.4516 16.1383 57.3417 16.148C57.2317 16.1577 57.1168 16.1626 56.9969 16.1626C56.6371 16.1626 56.3973 16.1042 56.2774 15.9876C56.1575 15.8709 56.0975 15.6376 56.0975 15.2876V11.5542H57.6564V10.1688H56.0975Z" fill="#101828"/>
<path d="M58.2195 7.2959V17.7084H60.3481V13.7563C60.3481 12.9883 60.478 12.439 60.7378 12.1084C60.9976 11.7681 61.4174 11.598 61.997 11.598C62.5066 11.598 62.8614 11.7535 63.0612 12.0646C63.2611 12.366 63.361 12.8278 63.361 13.4501V17.7084H65.4896V13.0709C65.4896 12.6042 65.4446 12.1813 65.3547 11.8021C65.2747 11.4133 65.1298 11.0876 64.92 10.8251C64.7101 10.5528 64.4203 10.3438 64.0506 10.198C63.6908 10.0424 63.2261 9.96465 62.6565 9.96465C62.2568 9.96465 61.8471 10.0667 61.4273 10.2709C61.0076 10.4653 60.6629 10.7813 60.393 11.2188H60.3481V7.2959H58.2195Z" fill="#101828"/>
<path d="M71.8719 13.1292H68.4092C68.4192 12.9834 68.4492 12.8181 68.4992 12.6334C68.5591 12.4487 68.6541 12.2737 68.784 12.1084C68.9239 11.9431 69.1038 11.807 69.3236 11.7001C69.5535 11.5834 69.8383 11.5251 70.1781 11.5251C70.6977 11.5251 71.0824 11.6612 71.3323 11.9334C71.5921 12.2056 71.772 12.6042 71.8719 13.1292ZM68.4092 14.4417H74.0005C74.0404 13.8584 73.9905 13.2994 73.8506 12.7646C73.7107 12.2299 73.4808 11.7535 73.161 11.3355C72.8512 10.9174 72.4515 10.5869 71.9618 10.3438C71.4722 10.091 70.8976 9.96465 70.238 9.96465C69.6484 9.96465 69.1088 10.0667 68.6191 10.2709C68.1394 10.4751 67.7247 10.757 67.3749 11.1167C67.0252 11.4667 66.7554 11.8848 66.5655 12.3709C66.3756 12.857 66.2807 13.382 66.2807 13.9459C66.2807 14.5292 66.3706 15.064 66.5505 15.5501C66.7404 16.0362 67.0052 16.4542 67.345 16.8042C67.6847 17.1542 68.0994 17.4265 68.5891 17.6209C69.0788 17.8056 69.6284 17.898 70.238 17.898C71.1174 17.898 71.8669 17.7035 72.4865 17.3146C73.1061 16.9258 73.5658 16.2792 73.8656 15.3751H71.9918C71.9219 15.6084 71.732 15.832 71.4222 16.0459C71.1124 16.2501 70.7427 16.3521 70.313 16.3521C69.7134 16.3521 69.2537 16.2015 68.9339 15.9001C68.6141 15.5987 68.4392 15.1126 68.4092 14.4417Z" fill="#101828"/>
<path d="M74.8132 10.1688V17.7084H76.9418V14.3105C76.9418 13.9702 76.9767 13.6542 77.0467 13.3626C77.1166 13.0709 77.2316 12.8181 77.3915 12.6042C77.5614 12.3806 77.7812 12.2056 78.051 12.0792C78.3208 11.9528 78.6506 11.8896 79.0404 11.8896C79.1703 11.8896 79.3052 11.8994 79.4451 11.9188C79.585 11.9285 79.7049 11.9431 79.8048 11.9626V10.0376C79.635 9.98895 79.4801 9.96465 79.3402 9.96465C79.0703 9.96465 78.8105 10.0035 78.5607 10.0813C78.3108 10.1591 78.076 10.2709 77.8562 10.4167C77.6363 10.5528 77.4414 10.723 77.2715 10.9271C77.1017 11.1216 76.9668 11.3355 76.8668 11.5688H76.8368V10.1688H74.8132Z" fill="#101828"/>
<path d="M82.7679 15.7834V9.2209H84.4468C85.0264 9.2209 85.5111 9.30354 85.9008 9.46882C86.3005 9.62437 86.6203 9.85284 86.8602 10.1542C87.1 10.4556 87.2699 10.8202 87.3698 11.248C87.4797 11.666 87.5347 12.1376 87.5347 12.6626C87.5347 13.2362 87.4598 13.7223 87.3099 14.1209C87.16 14.5195 86.9601 14.8452 86.7103 15.098C86.4604 15.341 86.1756 15.516 85.8558 15.623C85.5361 15.7299 85.2063 15.7834 84.8665 15.7834H82.7679ZM80.4145 7.2959V17.7084H85.0314C85.8508 17.7084 86.5604 17.5771 87.16 17.3146C87.7696 17.0424 88.2742 16.673 88.6739 16.2063C89.0837 15.7396 89.3885 15.1855 89.5883 14.5438C89.7882 13.9021 89.8881 13.2021 89.8881 12.4438C89.8881 11.5785 89.7632 10.8251 89.5134 10.1834C89.2735 9.54173 88.9338 9.00701 88.4941 8.57923C88.0644 8.15145 87.5497 7.83062 86.9501 7.61673C86.3605 7.40284 85.7209 7.2959 85.0314 7.2959H80.4145Z" fill="#101828"/>
<path d="M96.0671 13.1292H92.6045C92.6144 12.9834 92.6444 12.8181 92.6944 12.6334C92.7544 12.4487 92.8493 12.2737 92.9792 12.1084C93.1191 11.9431 93.299 11.807 93.5188 11.7001C93.7487 11.5834 94.0335 11.5251 94.3733 11.5251C94.8929 11.5251 95.2777 11.6612 95.5275 11.9334C95.7873 12.2056 95.9672 12.6042 96.0671 13.1292ZM92.6045 14.4417H98.1957C98.2356 13.8584 98.1857 13.2994 98.0458 12.7646C97.9059 12.2299 97.676 11.7535 97.3563 11.3355C97.0465 10.9174 96.6467 10.5869 96.1571 10.3438C95.6674 10.091 95.0928 9.96465 94.4332 9.96465C93.8436 9.96465 93.304 10.0667 92.8143 10.2709C92.3346 10.4751 91.9199 10.757 91.5702 11.1167C91.2204 11.4667 90.9506 11.8848 90.7607 12.3709C90.5708 12.857 90.4759 13.382 90.4759 13.9459C90.4759 14.5292 90.5658 15.064 90.7457 15.5501C90.9356 16.0362 91.2004 16.4542 91.5402 16.8042C91.8799 17.1542 92.2947 17.4265 92.7843 17.6209C93.274 17.8056 93.8236 17.898 94.4332 17.898C95.3126 17.898 96.0621 17.7035 96.6817 17.3146C97.3013 16.9258 97.761 16.2792 98.0608 15.3751H96.187C96.1171 15.6084 95.9272 15.832 95.6174 16.0459C95.3076 16.2501 94.9379 16.3521 94.5082 16.3521C93.9086 16.3521 93.4489 16.2015 93.1291 15.9001C92.8093 15.5987 92.6344 15.1126 92.6045 14.4417Z" fill="#101828"/>
<path d="M103.296 17.7084L105.919 10.1688H103.805L102.171 15.3167H102.141L100.507 10.1688H98.2739L100.927 17.7084H103.296Z" fill="#101828"/>
</svg>
