<svg width="107" height="28" viewBox="0 0 107 28" fill="none" xmlns="http://www.w3.org/2000/svg">
<g clip-path="url(#clip0_359_3506)">
<path d="M16.0319 2.40485L13.5505 1.74512L11.4593 9.48867L9.57141 2.49774L7.0899 3.15747L9.12969 10.7107L4.04904 5.6696L2.23247 7.47202L7.80531 13.0015L0.865228 11.1564L0.200317 13.6185L7.78322 15.6345C7.69641 15.263 7.65048 14.8759 7.65048 14.4781C7.65048 11.6625 9.95085 9.38006 12.7885 9.38006C15.6262 9.38006 17.9266 11.6625 17.9266 14.4781C17.9266 14.8733 17.8812 15.258 17.7955 15.6274L24.6869 17.4595L25.3518 14.9974L17.7387 12.9734L24.6793 11.1281L24.0143 8.66602L16.4016 10.6899L21.4822 5.6489L19.6657 3.84648L14.1701 9.29924L16.0319 2.40485Z" fill="#FF4405"/>
<path d="M17.7882 15.6561C17.5754 16.5485 17.1263 17.3502 16.51 17.9926L21.5025 22.9463L23.3191 21.1439L17.7882 15.6561Z" fill="#FF4405"/>
<path d="M16.4596 18.0444C15.8359 18.6765 15.0476 19.1482 14.1637 19.3913L15.9804 26.1184L18.4619 25.4587L16.4596 18.0444Z" fill="#FF4405"/>
<path d="M14.071 19.4159C13.6609 19.5205 13.2311 19.5761 12.7881 19.5761C12.3135 19.5761 11.8539 19.5122 11.4176 19.3927L9.5993 26.126L12.0808 26.7857L14.071 19.4159Z" fill="#FF4405"/>
<path d="M11.3299 19.3679C10.4595 19.1127 9.68526 18.635 9.07427 18.0011L4.06943 22.967L5.88599 24.7694L11.3299 19.3679Z" fill="#FF4405"/>
<path d="M9.03302 17.9572C8.4325 17.3193 7.99508 16.5283 7.78687 15.6496L0.872914 17.4878L1.53782 19.9499L9.03302 17.9572Z" fill="#FF4405"/>
</g>
<path d="M40.2838 7.53027V16.4028L34.5516 7.53027H32.2588V19.7803H34.5516V10.9778L40.2838 19.7803H42.5766V7.53027H40.2838Z" fill="#101828"/>
<path d="M43.6098 9.82277H45.9732V7.53027H43.6098V9.82277ZM43.6451 19.7803V11.0303H45.9379V19.7803H43.6451Z" fill="#101828"/>
<path d="M55.8032 15.4053C55.8032 12.3778 53.6338 10.9428 51.3409 10.9253C49.0304 10.9078 46.8963 12.3778 46.8963 15.4053C46.8963 18.4328 49.0304 19.9028 51.3409 19.8853C53.4397 19.8678 54.886 18.9053 55.5562 17.3128L53.7749 16.5778C53.2281 17.6628 52.3639 18.0478 51.3409 18.0653C50.459 18.0828 49.4537 17.6628 49.2421 16.1053H55.7502C55.7855 15.8778 55.8032 15.6503 55.8032 15.4053ZM51.3409 12.7278C52.2228 12.7453 53.1223 13.2178 53.4045 14.4778H49.2773C49.5772 13.2003 50.4767 12.7103 51.3409 12.7278Z" fill="#101828"/>
<path d="M61.1021 12.6578V10.9253H59.6558V8.58027L57.363 9.28027V10.9253H55.9167V12.6578H57.363V17.1903C57.363 18.9053 57.5041 19.7803 60.1849 19.7803H60.8022V17.7853H60.1849C59.7616 17.7853 59.6558 17.7153 59.6558 17.1903V12.6578H61.1021Z" fill="#101828"/>
<path d="M64.5091 17.8728L69.377 12.9378V11.0303H62.0752V12.9378H66.802L61.9341 17.8728V19.7803H69.4299V17.8728H64.5091Z" fill="#101828"/>
<path d="M70.252 17.3128L72.5625 16.9628C72.7212 17.8378 73.7618 18.1703 74.3968 18.1703C75.0494 18.1703 76.1782 18.0303 76.1782 16.9803C76.1782 14.9328 70.5166 17.4878 70.5166 13.5678C70.5166 11.0478 73.462 10.9078 74.3968 10.9078C75.2787 10.9078 77.8361 11.0478 78.3652 13.0778L76.1782 13.5328C75.9841 12.6053 74.9965 12.4303 74.4673 12.4303C73.9382 12.4303 72.8094 12.5528 72.8094 13.5678C72.8094 15.5978 78.471 13.0078 78.471 16.9803C78.471 19.6578 75.3668 19.8853 74.3968 19.8853C73.5149 19.8853 70.7106 19.6578 70.252 17.3128Z" fill="#101828"/>
<path d="M81.4497 15.4053C81.4497 17.5403 82.5961 18.1878 83.7954 18.1703C84.8713 18.1528 85.6121 17.7153 86.053 16.4903L87.9402 17.4003C87.2524 19.1853 85.5768 19.8678 83.7954 19.8853C81.4849 19.9028 79.1568 18.4328 79.1568 15.4053C79.1568 12.3778 81.4849 10.9078 83.7954 10.9253C85.5768 10.9428 87.2524 11.6253 87.9402 13.4103L86.053 14.3203C85.6121 13.0953 84.8713 12.6578 83.7954 12.6403C82.5961 12.6228 81.4497 13.2703 81.4497 15.4053Z" fill="#101828"/>
<path d="M94.0955 10.8903C92.9138 10.8903 91.8379 11.5028 91.1501 12.8153V7.53027H88.8572V19.7803H91.1501V16.6828C91.1501 12.6753 92.8256 12.3428 93.4429 12.3428C94.4306 12.3428 94.5717 13.3578 94.5717 14.8453V19.7803H96.8646V14.8453C96.8646 12.9903 96.5648 10.8903 94.0955 10.8903Z" fill="#101828"/>
<path d="M106.545 15.4053C106.545 12.3778 104.376 10.9428 102.083 10.9253C99.7723 10.9078 97.6382 12.3778 97.6382 15.4053C97.6382 18.4328 99.7723 19.9028 102.083 19.8853C104.182 19.8678 105.628 18.9053 106.298 17.3128L104.517 16.5778C103.97 17.6628 103.106 18.0478 102.083 18.0653C101.201 18.0828 100.196 17.6628 99.9839 16.1053H106.492C106.527 15.8778 106.545 15.6503 106.545 15.4053ZM102.083 12.7278C102.965 12.7453 103.864 13.2178 104.146 14.4778H100.019C100.319 13.2003 101.219 12.7103 102.083 12.7278Z" fill="#101828"/>
<defs>
<clipPath id="clip0_359_3506">
<rect width="25.8681" height="25.6667" fill="white" transform="translate(0 1.16699)"/>
</clipPath>
</defs>
</svg>
