<svg width="91" height="25" viewBox="0 0 91 25" fill="none" xmlns="http://www.w3.org/2000/svg">
<path fill-rule="evenodd" clip-rule="evenodd" d="M12.1471 23.9587C18.5796 23.9587 23.7941 18.8286 23.7941 12.5003C23.7941 6.17207 18.5796 1.04199 12.1471 1.04199C5.71455 1.04199 0.5 6.17207 0.5 12.5003C0.5 18.8286 5.71455 23.9587 12.1471 23.9587ZM15.7805 6.37977C15.9574 5.76171 15.3477 5.39624 14.7909 5.78649L7.01834 11.2339C6.4145 11.6572 6.50948 12.5003 7.16102 12.5003H9.20776V12.4847H13.1968L9.94647 13.613L8.51359 18.6209C8.33673 19.239 8.94634 19.6044 9.50318 19.2142L17.2758 13.7668C17.8796 13.3435 17.7846 12.5003 17.1331 12.5003H14.0293L15.7805 6.37977Z" fill="#155EEF"/>
<path d="M29.8188 17.6611V15.8486H31.28V8.53613H29.8188V6.72363H35.5365C36.2141 6.72363 36.8018 6.83822 37.2994 7.06738C37.8077 7.28613 38.1994 7.60384 38.4747 8.02051C38.7606 8.42676 38.9036 8.91634 38.9036 9.48926V9.64551C38.9036 10.1455 38.8083 10.557 38.6177 10.8799C38.4271 11.1924 38.1994 11.4372 37.9347 11.6143C37.6806 11.7809 37.4371 11.9007 37.2041 11.9736V12.2549C37.4371 12.3174 37.6912 12.4372 37.9665 12.6143C38.2418 12.7809 38.4747 13.0257 38.6653 13.3486C38.8665 13.6716 38.9671 14.0934 38.9671 14.6143V14.7705C38.9671 15.3747 38.8241 15.8955 38.5383 16.333C38.2524 16.7601 37.8553 17.0882 37.3471 17.3174C36.8494 17.5466 36.2671 17.6611 35.6 17.6611H29.8188ZM33.3765 15.7861H35.3459C35.8012 15.7861 36.1665 15.6768 36.4418 15.458C36.7277 15.2393 36.8706 14.9268 36.8706 14.5205V14.3643C36.8706 13.958 36.733 13.6455 36.4577 13.4268C36.1824 13.208 35.8118 13.0986 35.3459 13.0986H33.3765V15.7861ZM33.3765 11.2236H35.3141C35.7483 11.2236 36.103 11.1143 36.3783 10.8955C36.6641 10.6768 36.8071 10.3747 36.8071 9.98926V9.83301C36.8071 9.43717 36.6694 9.13509 36.3941 8.92676C36.1188 8.70801 35.7588 8.59863 35.3141 8.59863H33.3765V11.2236Z" fill="#101828"/>
<path d="M43.701 17.8799C42.9175 17.8799 42.2134 17.7236 41.5887 17.4111C40.964 17.0986 40.4716 16.6455 40.1116 16.0518C39.7516 15.458 39.5716 14.7445 39.5716 13.9111V13.6611C39.5716 12.8278 39.7516 12.1143 40.1116 11.5205C40.4716 10.9268 40.964 10.4736 41.5887 10.1611C42.2134 9.84863 42.9175 9.69238 43.701 9.69238C44.4845 9.69238 45.1887 9.84863 45.8134 10.1611C46.4381 10.4736 46.9304 10.9268 47.2904 11.5205C47.6504 12.1143 47.8304 12.8278 47.8304 13.6611V13.9111C47.8304 14.7445 47.6504 15.458 47.2904 16.0518C46.9304 16.6455 46.4381 17.0986 45.8134 17.4111C45.1887 17.7236 44.4845 17.8799 43.701 17.8799ZM43.701 16.1299C44.3151 16.1299 44.8234 15.9372 45.2257 15.5518C45.6281 15.1559 45.8293 14.5934 45.8293 13.8643V13.708C45.8293 12.9788 45.6281 12.4216 45.2257 12.0361C44.834 11.6403 44.3257 11.4424 43.701 11.4424C43.0869 11.4424 42.5787 11.6403 42.1763 12.0361C41.774 12.4216 41.5728 12.9788 41.5728 13.708V13.8643C41.5728 14.5934 41.774 15.1559 42.1763 15.5518C42.5787 15.9372 43.0869 16.1299 43.701 16.1299Z" fill="#101828"/>
<path d="M48.8835 17.6611V6.72363H50.8847V17.6611H48.8835Z" fill="#101828"/>
<path d="M55.3258 17.6611C54.807 17.6611 54.3834 17.5049 54.0552 17.1924C53.7375 16.8695 53.5787 16.4424 53.5787 15.9111V11.5361H51.6093V9.91113H53.5787V7.50488H55.5799V9.91113H57.7399V11.5361H55.5799V15.5674C55.5799 15.8799 55.7281 16.0361 56.0246 16.0361H57.5493V17.6611H55.3258Z" fill="#101828"/>
<path d="M62.029 17.8799C61.0019 17.8799 60.1602 17.6611 59.5037 17.2236C58.8472 16.7861 58.4502 16.1611 58.3125 15.3486L60.1549 14.8799C60.229 15.2445 60.3508 15.5309 60.5202 15.7393C60.7002 15.9476 60.9172 16.0986 61.1714 16.1924C61.4361 16.2757 61.7219 16.3174 62.029 16.3174C62.4949 16.3174 62.839 16.2393 63.0614 16.083C63.2837 15.9163 63.3949 15.7132 63.3949 15.4736C63.3949 15.2341 63.289 15.0518 63.0772 14.9268C62.8655 14.7913 62.5267 14.682 62.0608 14.5986L61.6161 14.5205C61.0655 14.4163 60.5625 14.2757 60.1072 14.0986C59.6519 13.9111 59.2867 13.6559 59.0114 13.333C58.7361 13.0101 58.5984 12.5934 58.5984 12.083C58.5984 11.3122 58.8843 10.7236 59.4561 10.3174C60.0278 9.90072 60.7796 9.69238 61.7114 9.69238C62.5902 9.69238 63.3208 9.88509 63.9031 10.2705C64.4855 10.6559 64.8667 11.1611 65.0467 11.7861L63.1884 12.3486C63.1037 11.9528 62.929 11.6716 62.6643 11.5049C62.4102 11.3382 62.0925 11.2549 61.7114 11.2549C61.3302 11.2549 61.039 11.3226 60.8378 11.458C60.6367 11.583 60.5361 11.7601 60.5361 11.9893C60.5361 12.2393 60.6419 12.4268 60.8537 12.5518C61.0655 12.6663 61.3514 12.7549 61.7114 12.8174L62.1561 12.8955C62.749 12.9997 63.2837 13.1403 63.7602 13.3174C64.2472 13.4841 64.6284 13.7288 64.9037 14.0518C65.1896 14.3643 65.3325 14.7913 65.3325 15.333C65.3325 16.1455 65.0308 16.7757 64.4272 17.2236C63.8343 17.6611 63.0349 17.8799 62.029 17.8799Z" fill="#101828"/>
<path d="M66.2921 17.6611V6.72363H68.2932V10.8643H68.5791C68.6638 10.6976 68.7962 10.5309 68.9762 10.3643C69.1562 10.1976 69.3944 10.0622 69.6909 9.95801C69.9979 9.84343 70.3844 9.78613 70.8503 9.78613C71.4644 9.78613 71.9991 9.92676 72.4544 10.208C72.9203 10.4788 73.2803 10.8591 73.5344 11.3486C73.7885 11.8278 73.9156 12.3903 73.9156 13.0361V17.6611H71.9144V13.1924C71.9144 12.6091 71.7662 12.1716 71.4697 11.8799C71.1838 11.5882 70.7709 11.4424 70.2309 11.4424C69.6168 11.4424 69.1403 11.6455 68.8015 12.0518C68.4626 12.4476 68.2932 13.0049 68.2932 13.7236V17.6611H66.2921Z" fill="#101828"/>
<path d="M75.2848 17.6611V9.91113H77.286V17.6611H75.2848ZM76.2854 9.00488C75.9254 9.00488 75.6183 8.8903 75.3642 8.66113C75.1207 8.43197 74.9989 8.12988 74.9989 7.75488C74.9989 7.37988 75.1207 7.0778 75.3642 6.84863C75.6183 6.61947 75.9254 6.50488 76.2854 6.50488C76.656 6.50488 76.9631 6.61947 77.2066 6.84863C77.4501 7.0778 77.5719 7.37988 77.5719 7.75488C77.5719 8.12988 77.4501 8.43197 77.2066 8.66113C76.9631 8.8903 76.656 9.00488 76.2854 9.00488Z" fill="#101828"/>
<path d="M80.0118 17.6611V11.5361H78.0106V9.91113H80.0118V8.47363C80.0118 7.94238 80.1706 7.52051 80.4883 7.20801C80.8165 6.88509 81.24 6.72363 81.7589 6.72363H83.8236V8.34863H82.4577C82.1612 8.34863 82.013 8.50488 82.013 8.81738V9.91113H84.0777V11.5361H82.013V17.6611H80.0118Z" fill="#101828"/>
<path d="M87.6954 17.6611C87.1766 17.6611 86.753 17.5049 86.4248 17.1924C86.1072 16.8695 85.9483 16.4424 85.9483 15.9111V11.5361H83.9789V9.91113H85.9483V7.50488H87.9495V9.91113H90.1095V11.5361H87.9495V15.5674C87.9495 15.8799 88.0977 16.0361 88.3942 16.0361H89.9189V17.6611H87.6954Z" fill="#101828"/>
</svg>
