<svg width="111" height="28" viewBox="0 0 111 28" fill="none" xmlns="http://www.w3.org/2000/svg">
<path d="M12.6739 2.33398C10.5361 2.33398 8.80945 4.02814 8.80945 6.12565C8.80945 8.20705 10.5361 9.90117 12.6574 9.91732C12.1312 9.90117 11.7201 9.48169 11.7201 8.96536C11.7201 8.44905 12.1477 8.01343 12.6904 8.01343C14.9925 8.01343 20.1068 8.01343 22.3597 8.01343C23.9548 8.01342 25.2539 6.73878 25.2539 5.17372C25.2539 3.60863 23.9548 2.33398 22.3597 2.33398L12.6739 2.33398Z" fill="#5720B7"/>
<path d="M7.97553 9.91699C5.83775 9.91699 4.11108 11.6111 4.11108 13.7087C4.11108 15.7901 5.83775 17.4842 7.95907 17.5003C7.43286 17.4842 7.02175 17.0647 7.02175 16.5484C7.02175 16.0321 7.44932 15.5964 7.99199 15.5964C10.2942 15.5964 15.4084 15.5964 17.6613 15.5964C19.2564 15.5964 20.5555 14.3218 20.5555 12.7567C20.5555 11.1916 19.2564 9.91699 17.6613 9.91699L7.97553 9.91699Z" fill="#6927DA"/>
<path d="M4.72776 17.5C2.43728 17.5 0.58728 19.3245 0.58728 21.5833C0.58728 23.8248 2.43728 25.6493 4.71012 25.6667C4.14632 25.6493 3.70585 25.1975 3.70585 24.6415C3.70585 24.0855 4.16396 23.6163 4.74539 23.6163C7.21203 23.6163 12.6916 23.6163 15.1054 23.6163C16.8144 23.6163 18.2063 22.2436 18.2063 20.5582C18.2063 18.8727 16.8144 17.5 15.1054 17.5L4.72776 17.5Z" fill="#7839EE"/>
<path d="M31.1152 19.7802V7.53016H39.0438V9.63016H33.4409V12.5527H38.5505V14.6527H33.4409V17.6802H39.1495V19.7802H31.1152Z" fill="#101828"/>
<path d="M40.0606 23.2802V11.1002H42.2454V12.1502H42.5625C42.7622 11.8118 43.0735 11.5143 43.4963 11.2577C43.9192 10.9893 44.5241 10.8552 45.3111 10.8552C46.0159 10.8552 46.6678 11.0302 47.2668 11.3802C47.8659 11.7185 48.3474 12.2202 48.7116 12.8852C49.0757 13.5502 49.2578 14.3552 49.2578 15.3002V15.5802C49.2578 16.5252 49.0757 17.3302 48.7116 17.9952C48.3474 18.6602 47.8659 19.1677 47.2668 19.5177C46.6678 19.856 46.0159 20.0252 45.3111 20.0252C44.7825 20.0252 44.3362 19.961 43.972 19.8327C43.6197 19.716 43.3319 19.5643 43.1087 19.3777C42.8973 19.1793 42.727 18.981 42.5978 18.7827H42.2806V23.2802H40.0606ZM44.6416 18.1002C45.3346 18.1002 45.9043 17.8843 46.3506 17.4527C46.8087 17.0093 47.0378 16.3677 47.0378 15.5277V15.3527C47.0378 14.5127 46.8087 13.8768 46.3506 13.4452C45.8925 13.0018 45.3228 12.7802 44.6416 12.7802C43.9603 12.7802 43.3906 13.0018 42.9325 13.4452C42.4744 13.8768 42.2454 14.5127 42.2454 15.3527V15.5277C42.2454 16.3677 42.4744 17.0093 42.9325 17.4527C43.3906 17.8843 43.9603 18.1002 44.6416 18.1002Z" fill="#101828"/>
<path d="M50.4152 19.7802V11.1002H52.6353V19.7802H50.4152ZM51.5253 10.0852C51.1259 10.0852 50.7852 9.95682 50.5033 9.70016C50.2332 9.44349 50.0981 9.10516 50.0981 8.68516C50.0981 8.26516 50.2332 7.92682 50.5033 7.67016C50.7852 7.41349 51.1259 7.28516 51.5253 7.28516C51.9364 7.28516 52.277 7.41349 52.5472 7.67016C52.8173 7.92682 52.9524 8.26516 52.9524 8.68516C52.9524 9.10516 52.8173 9.44349 52.5472 9.70016C52.277 9.95682 51.9364 10.0852 51.5253 10.0852Z" fill="#101828"/>
<path d="M58.3196 20.0252C57.4739 20.0252 56.7045 19.8502 56.0115 19.5002C55.3302 19.1502 54.7899 18.6427 54.3905 17.9777C53.9912 17.3127 53.7915 16.5077 53.7915 15.5627V15.3177C53.7915 14.3727 53.9912 13.5677 54.3905 12.9027C54.7899 12.2377 55.3302 11.7302 56.0115 11.3802C56.7045 11.0302 57.4739 10.8552 58.3196 10.8552C59.1536 10.8552 59.8701 11.001 60.4691 11.2927C61.0682 11.5843 61.5498 11.9868 61.9139 12.5002C62.2898 13.0018 62.5364 13.5735 62.6539 14.2152L60.5044 14.6702C60.4574 14.3202 60.3517 14.0052 60.1872 13.7252C60.0228 13.4452 59.7878 13.2235 59.4825 13.0602C59.1888 12.8968 58.8188 12.8152 58.3725 12.8152C57.9261 12.8152 57.5209 12.9143 57.1567 13.1127C56.8044 13.2993 56.5225 13.5852 56.311 13.9702C56.1113 14.3435 56.0115 14.8043 56.0115 15.3527V15.5277C56.0115 16.076 56.1113 16.5427 56.311 16.9277C56.5225 17.301 56.8044 17.5868 57.1567 17.7852C57.5209 17.9718 57.9261 18.0652 58.3725 18.0652C59.042 18.0652 59.5471 17.896 59.8877 17.5577C60.2401 17.2077 60.4632 16.7527 60.5572 16.1927L62.7067 16.7002C62.554 17.3185 62.2898 17.8843 61.9139 18.3977C61.5498 18.8993 61.0682 19.296 60.4691 19.5877C59.8701 19.8793 59.1536 20.0252 58.3196 20.0252Z" fill="#101828"/>
<path d="M66.9871 19.9202C66.3058 19.9202 65.7067 19.7685 65.1899 19.4652C64.6848 19.1502 64.2914 18.7185 64.0094 18.1702C63.7275 17.6218 63.5866 16.9918 63.5866 16.2802V11.1002H65.8066V16.1052C65.8066 16.7585 65.9652 17.2485 66.2823 17.5752C66.6112 17.9018 67.0752 18.0652 67.6742 18.0652C68.3555 18.0652 68.884 17.8435 69.2599 17.4002C69.6358 16.9452 69.8237 16.3152 69.8237 15.5102V11.1002H72.0437V19.7802H69.859V18.6427H69.5418C69.4009 18.9343 69.1366 19.2202 68.749 19.5002C68.3614 19.7802 67.7741 19.9202 66.9871 19.9202Z" fill="#101828"/>
<path d="M73.6332 19.7802V11.1002H75.8179V12.0802H76.1351C76.2643 11.7302 76.4757 11.4735 76.7694 11.3102C77.0748 11.1468 77.4271 11.0652 77.8265 11.0652H78.8836V13.0252H77.7913C77.2274 13.0252 76.7635 13.1768 76.3994 13.4802C76.0352 13.7718 75.8532 14.2268 75.8532 14.8452V19.7802H73.6332Z" fill="#101828"/>
<path d="M79.7379 19.7802V11.1002H81.9579V19.7802H79.7379ZM80.8479 10.0852C80.4485 10.0852 80.1079 9.95682 79.826 9.70016C79.5558 9.44349 79.4207 9.10516 79.4207 8.68516C79.4207 8.26516 79.5558 7.92682 79.826 7.67016C80.1079 7.41349 80.4485 7.28516 80.8479 7.28516C81.259 7.28516 81.5996 7.41349 81.8698 7.67016C82.14 7.92682 82.275 8.26516 82.275 8.68516C82.275 9.10516 82.14 9.44349 81.8698 9.70016C81.5996 9.95682 81.259 10.0852 80.8479 10.0852Z" fill="#101828"/>
<path d="M87.6951 20.0252C86.8259 20.0252 86.0448 19.8502 85.3518 19.5002C84.6587 19.1502 84.1126 18.6427 83.7132 17.9777C83.3138 17.3127 83.1141 16.5135 83.1141 15.5802V15.3002C83.1141 14.3668 83.3138 13.5677 83.7132 12.9027C84.1126 12.2377 84.6587 11.7302 85.3518 11.3802C86.0448 11.0302 86.8259 10.8552 87.6951 10.8552C88.5643 10.8552 89.3454 11.0302 90.0384 11.3802C90.7314 11.7302 91.2776 12.2377 91.677 12.9027C92.0764 13.5677 92.276 14.3668 92.276 15.3002V15.5802C92.276 16.5135 92.0764 17.3127 91.677 17.9777C91.2776 18.6427 90.7314 19.1502 90.0384 19.5002C89.3454 19.8502 88.5643 20.0252 87.6951 20.0252ZM87.6951 18.0652C88.3764 18.0652 88.9402 17.8493 89.3865 17.4177C89.8329 16.9743 90.056 16.3443 90.056 15.5277V15.3527C90.056 14.536 89.8329 13.9118 89.3865 13.4802C88.9519 13.0368 88.3881 12.8152 87.6951 12.8152C87.0138 12.8152 86.45 13.0368 86.0037 13.4802C85.5573 13.9118 85.3341 14.536 85.3341 15.3527V15.5277C85.3341 16.3443 85.5573 16.9743 86.0037 17.4177C86.45 17.8493 87.0138 18.0652 87.6951 18.0652Z" fill="#101828"/>
<path d="M96.7743 19.9202C96.093 19.9202 95.4939 19.7685 94.9771 19.4652C94.472 19.1502 94.0786 18.7185 93.7966 18.1702C93.5147 17.6218 93.3738 16.9918 93.3738 16.2802V11.1002H95.5938V16.1052C95.5938 16.7585 95.7524 17.2485 96.0695 17.5752C96.3984 17.9018 96.8624 18.0652 97.4614 18.0652C98.1427 18.0652 98.6712 17.8435 99.0471 17.4002C99.423 16.9452 99.6109 16.3152 99.6109 15.5102V11.1002H101.831V19.7802H99.6462V18.6427H99.329C99.1881 18.9343 98.9238 19.2202 98.5362 19.5002C98.1486 19.7802 97.5612 19.9202 96.7743 19.9202Z" fill="#101828"/>
<path d="M107.05 20.0252C105.911 20.0252 104.977 19.7802 104.248 19.2902C103.52 18.8002 103.08 18.1002 102.927 17.1902L104.971 16.6652C105.053 17.0735 105.188 17.3943 105.376 17.6277C105.576 17.861 105.817 18.0302 106.098 18.1352C106.392 18.2285 106.709 18.2752 107.05 18.2752C107.567 18.2752 107.948 18.1877 108.195 18.0127C108.442 17.826 108.565 17.5985 108.565 17.3302C108.565 17.0618 108.448 16.8577 108.213 16.7177C107.978 16.566 107.602 16.4435 107.085 16.3502L106.592 16.2627C105.981 16.146 105.423 15.9885 104.918 15.7902C104.413 15.5802 104.008 15.2943 103.702 14.9327C103.397 14.571 103.244 14.1043 103.244 13.5327C103.244 12.6693 103.561 12.0102 104.196 11.5552C104.83 11.0885 105.664 10.8552 106.698 10.8552C107.672 10.8552 108.483 11.071 109.129 11.5027C109.775 11.9343 110.198 12.5002 110.398 13.2002L108.336 13.8302C108.242 13.3868 108.048 13.0718 107.755 12.8852C107.473 12.6985 107.12 12.6052 106.698 12.6052C106.275 12.6052 105.952 12.681 105.728 12.8327C105.505 12.9727 105.394 13.171 105.394 13.4277C105.394 13.7077 105.511 13.9177 105.746 14.0577C105.981 14.186 106.298 14.2852 106.698 14.3552L107.191 14.4427C107.849 14.5593 108.442 14.7168 108.97 14.9152C109.511 15.1018 109.934 15.376 110.239 15.7377C110.556 16.0877 110.715 16.566 110.715 17.1727C110.715 18.0827 110.38 18.7885 109.71 19.2902C109.053 19.7802 108.166 20.0252 107.05 20.0252Z" fill="#101828"/>
</svg>
