<svg width="90" height="25" viewBox="0 0 90 25" fill="none" xmlns="http://www.w3.org/2000/svg">
<path fill-rule="evenodd" clip-rule="evenodd" d="M11.0337 1.79643C10.7646 1.74233 10.4869 1.74233 10.2178 1.79643C9.90667 1.85897 9.62858 2.01119 9.40751 2.1322L9.34725 2.1651L1.85447 6.23324C1.83375 6.24449 1.81241 6.25598 1.79054 6.26775C1.55651 6.39373 1.26225 6.55213 1.03628 6.79177C0.840904 6.99896 0.693053 7.24453 0.602609 7.51206C0.497996 7.82149 0.49922 8.1498 0.500194 8.41092C0.500285 8.43532 0.500373 8.45914 0.500373 8.48229V16.5146C0.500373 16.5377 0.500285 16.5615 0.500194 16.5859C0.49922 16.847 0.497996 17.1754 0.602609 17.4848C0.693054 17.7523 0.840906 17.9979 1.03628 18.2051C1.26225 18.4447 1.55651 18.6031 1.79054 18.7291C1.81241 18.7409 1.83375 18.7524 1.85447 18.7636L9.34725 22.8317L9.40751 22.8646C9.62859 22.9857 9.90667 23.1379 10.2178 23.2004C10.4869 23.2545 10.7646 23.2545 11.0337 23.2004C11.3448 23.1379 11.6229 22.9857 11.844 22.8646L11.9043 22.8317L19.397 18.7636C19.4062 18.7586 19.4155 18.7536 19.4249 18.7485C19.4367 18.7421 19.4488 18.7357 19.461 18.7291C19.695 18.6031 19.9892 18.4447 20.2152 18.2051C20.4106 17.9979 20.5584 17.7523 20.6489 17.4848C20.7535 17.1754 20.7523 16.847 20.7513 16.5859C20.7512 16.5615 20.7511 16.5377 20.7511 16.5146V8.48229C20.7511 8.45914 20.7512 8.43532 20.7513 8.41092C20.7523 8.1498 20.7535 7.82149 20.6489 7.51206C20.5584 7.24453 20.4106 6.99896 20.2152 6.79177C19.9892 6.55212 19.695 6.39372 19.461 6.26775L19.4601 6.2673C19.4385 6.25569 19.4175 6.24434 19.397 6.23324L11.9043 2.1651L11.844 2.1322C11.6229 2.01119 11.3448 1.85897 11.0337 1.79643ZM10.3307 3.89514C10.4842 3.81183 10.5625 3.76974 10.6209 3.7422L10.6257 3.73993L10.6306 3.7422C10.689 3.76974 10.7673 3.81183 10.9208 3.89514L17.6536 7.55066L10.6257 11.3664L3.59786 7.55068L10.3307 3.89514ZM2.52545 9.23243L9.61318 13.0806L9.61321 20.7121L2.83793 17.0336C2.67597 16.9456 2.59328 16.9003 2.53527 16.8641L2.53037 16.8611L2.53001 16.8554C2.52587 16.7883 2.52545 16.6956 2.52545 16.5146V9.23243Z" fill="#101828"/>
<path d="M29.9665 15.8053H33.1897V17.6615H27.506V7.78965H29.9665V15.8053Z" fill="#101828"/>
<path d="M35.4569 8.99902C35.0252 8.99902 34.6703 8.87715 34.3921 8.6334C34.1235 8.38027 33.9892 8.0709 33.9892 7.70527C33.9892 7.33027 34.1235 7.0209 34.3921 6.77715C34.6703 6.52402 35.0252 6.39746 35.4569 6.39746C35.879 6.39746 36.2244 6.52402 36.4929 6.77715C36.7711 7.0209 36.9102 7.33027 36.9102 7.70527C36.9102 8.0709 36.7711 8.38027 36.4929 8.6334C36.2244 8.87715 35.879 8.99902 35.4569 8.99902ZM36.68 9.81465V17.6615H34.2195V9.81465H36.68Z" fill="#101828"/>
<path d="M41.3698 9.70215C41.9357 9.70215 42.4298 9.81465 42.8519 10.0396C43.2835 10.2646 43.6145 10.56 43.8447 10.9256V9.81465H46.3053V17.6475C46.3053 18.3693 46.1566 19.0209 45.8592 19.6021C45.5714 20.1928 45.1254 20.6615 44.521 21.0084C43.9263 21.3553 43.1828 21.5287 42.2907 21.5287C41.1012 21.5287 40.1371 21.2521 39.3984 20.699C38.6598 20.1553 38.2377 19.4146 38.1322 18.4771H40.564C40.6407 18.7771 40.823 19.0115 41.1108 19.1803C41.3986 19.3584 41.7535 19.4475 42.1756 19.4475C42.684 19.4475 43.0869 19.3021 43.3843 19.0115C43.6912 18.7303 43.8447 18.2756 43.8447 17.6475V16.5365C43.6049 16.9021 43.2739 17.2021 42.8519 17.4365C42.4298 17.6615 41.9357 17.774 41.3698 17.774C40.7079 17.774 40.1083 17.61 39.5711 17.2818C39.0339 16.9443 38.607 16.4709 38.2905 15.8615C37.9835 15.2428 37.83 14.5303 37.83 13.724C37.83 12.9178 37.9835 12.21 38.2905 11.6006C38.607 10.9912 39.0339 10.5225 39.5711 10.1943C40.1083 9.86621 40.7079 9.70215 41.3698 9.70215ZM43.8447 13.7381C43.8447 13.1381 43.672 12.6646 43.3267 12.3178C42.991 11.9709 42.5785 11.7975 42.0892 11.7975C41.6 11.7975 41.1827 11.9709 40.8374 12.3178C40.5016 12.6553 40.3337 13.124 40.3337 13.724C40.3337 14.324 40.5016 14.8021 40.8374 15.1584C41.1827 15.5053 41.6 15.6787 42.0892 15.6787C42.5785 15.6787 42.991 15.5053 43.3267 15.1584C43.672 14.8115 43.8447 14.3381 43.8447 13.7381Z" fill="#101828"/>
<path d="M52.877 9.73027C53.7979 9.73027 54.5365 10.0303 55.0929 10.6303C55.6493 11.2209 55.9275 12.0365 55.9275 13.0771V17.6615H53.4813V13.4006C53.4813 12.8756 53.3422 12.4678 53.064 12.1771C52.7859 11.8865 52.4117 11.7412 51.9417 11.7412C51.4716 11.7412 51.0975 11.8865 50.8193 12.1771C50.5411 12.4678 50.402 12.8756 50.402 13.4006V17.6615H47.9415V7.25527H50.402V10.8693C50.6515 10.5225 50.992 10.2459 51.4237 10.0396C51.8554 9.8334 52.3398 9.73027 52.877 9.73027Z" fill="#101828"/>
<path d="M61.9685 15.6225V17.6615H60.7166C59.8245 17.6615 59.129 17.4506 58.6302 17.0287C58.1314 16.5975 57.882 15.899 57.882 14.9334V11.8115H56.9035V9.81465H57.882V7.90215H60.3425V9.81465H61.9541V11.8115H60.3425V14.9615C60.3425 15.1959 60.4001 15.3646 60.5152 15.4678C60.6303 15.5709 60.8222 15.6225 61.0908 15.6225H61.9685Z" fill="#101828"/>
<path d="M65.6557 10.9256C65.886 10.56 66.2169 10.2646 66.6486 10.0396C67.0803 9.81465 67.5743 9.70215 68.1307 9.70215C68.7926 9.70215 69.3921 9.86621 69.9293 10.1943C70.4665 10.5225 70.8886 10.9912 71.1956 11.6006C71.5122 12.21 71.6704 12.9178 71.6704 13.724C71.6704 14.5303 71.5122 15.2428 71.1956 15.8615C70.8886 16.4709 70.4665 16.9443 69.9293 17.2818C69.3921 17.61 68.7926 17.774 68.1307 17.774C67.5647 17.774 67.0707 17.6662 66.6486 17.4506C66.2265 17.2256 65.8956 16.9303 65.6557 16.5646V17.6615H63.1952V7.25527H65.6557V10.9256ZM69.1667 13.724C69.1667 13.124 68.994 12.6553 68.6487 12.3178C68.313 11.9709 67.8957 11.7975 67.3968 11.7975C66.9076 11.7975 66.4903 11.9709 66.145 12.3178C65.8092 12.6646 65.6414 13.1381 65.6414 13.7381C65.6414 14.3381 65.8092 14.8115 66.145 15.1584C66.4903 15.5053 66.9076 15.6787 67.3968 15.6787C67.8861 15.6787 68.3034 15.5053 68.6487 15.1584C68.994 14.8021 69.1667 14.324 69.1667 13.724Z" fill="#101828"/>
<path d="M76.4723 17.774C75.6857 17.774 74.9758 17.61 74.3427 17.2818C73.7191 16.9537 73.2251 16.485 72.8606 15.8756C72.5056 15.2662 72.3282 14.5537 72.3282 13.7381C72.3282 12.9318 72.5104 12.224 72.875 11.6146C73.2395 10.9959 73.7383 10.5225 74.3714 10.1943C75.0046 9.86621 75.7144 9.70215 76.5011 9.70215C77.2877 9.70215 77.9975 9.86621 78.6307 10.1943C79.2638 10.5225 79.7626 10.9959 80.1271 11.6146C80.4917 12.224 80.6739 12.9318 80.6739 13.7381C80.6739 14.5443 80.4869 15.2568 80.1127 15.8756C79.7482 16.485 79.2446 16.9537 78.6019 17.2818C77.9688 17.61 77.2589 17.774 76.4723 17.774ZM76.4723 15.6928C76.9423 15.6928 77.3404 15.524 77.6666 15.1865C78.0023 14.849 78.1702 14.3662 78.1702 13.7381C78.1702 13.11 78.0071 12.6271 77.681 12.2896C77.3644 11.9521 76.9711 11.7834 76.5011 11.7834C76.0214 11.7834 75.6233 11.9521 75.3067 12.2896C74.9902 12.6178 74.8319 13.1006 74.8319 13.7381C74.8319 14.3662 74.9854 14.849 75.2924 15.1865C75.6089 15.524 76.0022 15.6928 76.4723 15.6928Z" fill="#101828"/>
<path d="M86.5839 17.6615L85.0442 15.4818L83.7492 17.6615H81.0872L83.7348 13.6537L81.0152 9.81465H83.778L85.3176 11.9803L86.6126 9.81465H89.2746L86.5839 13.7662L89.3466 17.6615H86.5839Z" fill="#101828"/>
</svg>
