<svg width="105" height="25" viewBox="0 0 105 25" fill="none" xmlns="http://www.w3.org/2000/svg">
<path d="M16.2185 1.04199H7.23333L0 8.11026V16.8904L7.23333 23.9587H16.2185L23.4518 16.8904V8.11026L16.2185 1.04199ZM8.47655 17.0008L3.84271 12.4727L8.47655 7.9446C10.2284 6.23276 13.1104 6.23276 14.8622 7.9446L19.4961 12.4727L14.8622 17.0008C13.1104 18.7127 10.2849 18.7127 8.47655 17.0008Z" fill="#444CE7"/>
<path d="M33.7599 17.833C35.199 17.833 36.3822 17.1143 36.75 16.0361V17.708H38.8767V13.4893C38.8767 12.5361 38.1091 11.7236 37.0698 11.7236H34.0317V13.4893H36.1904C36.4622 13.4893 36.6381 13.6611 36.6381 13.9268C36.6381 14.9424 35.263 15.9268 33.8718 15.9268C32.017 15.9268 30.5459 14.5049 30.5459 12.2393C30.5459 9.97363 32.017 8.66113 33.9198 8.66113C35.3589 8.66113 36.3503 9.42676 36.5262 10.5986H38.9086C38.7647 8.25488 36.75 6.64551 33.9358 6.64551C30.9777 6.64551 28.2594 8.50488 28.2594 12.2393C28.2594 15.9736 30.8977 17.833 33.7599 17.833Z" fill="#101828"/>
<path d="M39.7896 17.708H42.0122V6.41113H39.7896V17.708Z" fill="#101828"/>
<path d="M46.8065 17.833C49.2849 17.833 51.0598 16.1143 51.0598 13.7705C51.0598 11.4268 49.2849 9.70801 46.8065 9.70801C44.3281 9.70801 42.5532 11.4268 42.5532 13.7705C42.5532 16.1143 44.3281 17.833 46.8065 17.833ZM46.8065 15.958C45.6073 15.958 44.7918 15.0674 44.7918 13.7705C44.7918 12.458 45.6073 11.5674 46.8065 11.5674C48.0057 11.5674 48.8212 12.458 48.8212 13.7705C48.8212 15.0674 48.0057 15.958 46.8065 15.958Z" fill="#101828"/>
<path d="M56.0331 17.833C58.4156 17.833 59.8387 16.2236 59.8387 13.7705C59.8387 11.3174 58.4156 9.70801 56.0651 9.70801C55.0578 9.70801 54.2743 10.083 53.8265 10.6611V6.41113H51.604V17.708H53.8265V16.8486C54.2743 17.458 55.1057 17.833 56.0331 17.833ZM55.6814 15.958C54.4821 15.958 53.6986 15.083 53.6986 13.7705C53.6986 12.4424 54.4821 11.5674 55.6814 11.5674C56.8486 11.5674 57.6481 12.4424 57.6481 13.7705C57.6481 15.083 56.8486 15.958 55.6814 15.958Z" fill="#101828"/>
<path d="M63.5592 9.70801C61.3526 9.70801 60.0415 10.9736 59.9455 12.5518H61.9283C61.9603 11.8955 62.4559 11.3018 63.4313 11.3018C64.3427 11.3018 64.8704 11.7549 64.8704 12.4111C64.8704 12.7393 64.6625 12.9893 64.2628 12.9893H62.9037C61.1448 12.9893 59.9615 13.9268 59.9615 15.4736C59.9615 16.8174 61.0328 17.833 62.5998 17.833C63.7031 17.833 64.5986 17.3486 64.8704 16.6143V17.708H67.077V12.6455C67.077 10.8643 65.59 9.70801 63.5592 9.70801ZM63.1595 16.2549C62.5359 16.2549 62.0882 15.8955 62.0882 15.3799C62.0882 14.7705 62.5679 14.3643 63.2394 14.3643H64.8704V14.4736C64.8704 15.4736 64.2468 16.2549 63.1595 16.2549Z" fill="#101828"/>
<path d="M67.9311 17.708H70.1537V6.41113H67.9311V17.708Z" fill="#101828"/>
<path d="M71.3343 17.708H75.9074C78.2739 17.708 79.9049 16.5205 79.9049 14.4424C79.9049 13.0049 79.0414 12.1299 78.0181 11.7393C78.6736 11.3955 79.3292 10.6143 79.3292 9.58301C79.3292 7.75488 77.8102 6.77051 75.7795 6.77051H71.3343V17.708ZM73.7008 10.9424V8.62988H75.5556C76.6269 8.62988 77.1066 9.05176 77.1066 9.78613C77.1066 10.5205 76.6269 10.9424 75.6036 10.9424H73.7008ZM73.7008 15.6768V12.9268H75.6995C77.0267 12.9268 77.6183 13.4268 77.6183 14.3174C77.6183 15.208 77.0267 15.6768 75.6995 15.6768H73.7008Z" fill="#101828"/>
<path d="M83.7714 9.70801C81.5648 9.70801 80.2536 10.9736 80.1577 12.5518H82.1404C82.1724 11.8955 82.6681 11.3018 83.6435 11.3018C84.5549 11.3018 85.0826 11.7549 85.0826 12.4111C85.0826 12.7393 84.8747 12.9893 84.475 12.9893H83.1158C81.3569 12.9893 80.1737 13.9268 80.1737 15.4736C80.1737 16.8174 81.245 17.833 82.812 17.833C83.9153 17.833 84.8107 17.3486 85.0826 16.6143V17.708H87.2892V12.6455C87.2892 10.8643 85.8021 9.70801 83.7714 9.70801ZM83.3717 16.2549C82.7481 16.2549 82.3003 15.8955 82.3003 15.3799C82.3003 14.7705 82.78 14.3643 83.4516 14.3643H85.0826V14.4736C85.0826 15.4736 84.459 16.2549 83.3717 16.2549Z" fill="#101828"/>
<path d="M88.0153 17.708H90.2539V13.3955C90.2539 12.3799 90.9415 11.6455 91.9169 11.6455C92.8443 11.6455 93.4679 12.333 93.4679 13.2861V17.708H95.7065V12.8018C95.7065 10.9893 94.5232 9.70801 92.7004 9.70801C91.5971 9.70801 90.7016 10.1611 90.2539 10.9268V9.83301H88.0153V17.708Z" fill="#101828"/>
<path d="M102.087 17.708H104.773L101.303 12.9268L104.517 9.83301H101.703L98.9045 12.5205V6.41113H96.666V17.708H98.9045V15.2393L99.8 14.3799L102.087 17.708Z" fill="#101828"/>
</svg>
