<svg width="89" height="25" viewBox="0 0 89 25" fill="none" xmlns="http://www.w3.org/2000/svg">
<path d="M22.0904 12.6302C22.0904 18.0894 17.5223 22.5885 11.7952 22.5885C6.06804 22.5885 1.5 18.0894 1.5 12.6302C1.5 7.17104 6.06804 2.67188 11.7952 2.67188C17.5223 2.67188 22.0904 7.17104 22.0904 12.6302Z" stroke="#6927DA" stroke-width="3"/>
<path d="M15.6477 16.3727C13.5032 18.456 11.0981 19.79 9.00357 20.3132C6.87072 20.846 5.35699 20.4901 4.53061 19.6873C3.70424 18.8845 3.3378 17.414 3.88625 15.3421C4.42486 13.3073 5.79808 10.971 7.94261 8.88769C10.0871 6.8044 12.4922 5.47039 14.5867 4.94716C16.7196 4.41438 18.2333 4.77035 19.0597 5.57312C19.8861 6.3759 20.2525 7.8464 19.7041 9.91834C19.1654 11.9531 17.7922 14.2894 15.6477 16.3727Z" stroke="#6927DA" stroke-width="3"/>
<path d="M15.6476 8.88845C17.7921 10.9717 19.1653 13.3081 19.7039 15.3428C20.2524 17.4148 19.8859 18.8853 19.0596 19.688C18.2332 20.4908 16.7195 20.8468 14.5866 20.314C12.492 19.7908 10.087 18.4568 7.94249 16.3735C5.79795 14.2902 4.42473 11.9539 3.88612 9.91911C3.33768 7.84717 3.70411 6.37667 4.53048 5.57389C5.35686 4.77111 6.87059 4.41515 9.00344 4.94793C11.098 5.47116 13.503 6.80516 15.6476 8.88845Z" stroke="#6927DA" stroke-width="3"/>
<path d="M33.6967 17.833C36.222 17.833 37.9269 16.5518 37.9269 14.5049C37.9269 10.1768 32.0079 12.0205 32.0079 9.73926C32.0079 9.09863 32.603 8.66113 33.552 8.66113C34.6296 8.66113 35.3052 9.22363 35.3856 10.083H37.6857C37.6213 8.00488 35.9807 6.64551 33.552 6.64551C31.268 6.64551 29.6596 7.92676 29.6596 9.73926C29.6596 14.0361 35.4982 12.3955 35.4982 14.5361C35.4982 15.3643 34.7744 15.8018 33.6967 15.8018C32.5065 15.8018 31.7505 15.0986 31.654 13.9893H29.3379C29.4344 16.3174 31.1393 17.833 33.6967 17.833Z" fill="#101828"/>
<path d="M38.4739 20.8955H40.7096V17.0049C41.1439 17.5361 41.9321 17.833 42.8489 17.833C45.1811 17.833 46.7574 16.2236 46.7574 13.7705C46.7574 11.3174 45.3098 9.70801 43.0419 9.70801C41.9964 9.70801 41.1922 10.083 40.7096 10.6924V9.83301H38.4739V20.8955ZM42.5754 15.958C41.3691 15.958 40.581 15.083 40.581 13.7705C40.581 12.4424 41.3691 11.5674 42.5754 11.5674C43.7496 11.5674 44.5538 12.4424 44.5538 13.7705C44.5538 15.083 43.7496 15.958 42.5754 15.958Z" fill="#101828"/>
<path d="M47.2983 17.708H49.534V13.3955C49.534 12.3799 50.2257 11.6455 51.2068 11.6455C52.1397 11.6455 52.7831 12.333 52.7831 13.2861V17.708H55.0188V12.8018C55.0188 10.9893 53.8286 9.70801 52.011 9.70801C50.8851 9.70801 50.0005 10.1611 49.534 10.9268V6.41113H47.2983V17.708Z" fill="#101828"/>
<path d="M61.2731 15.0361C61.0962 15.708 60.501 16.0518 59.6003 16.0518C58.4744 16.0518 57.7506 15.3643 57.5898 14.2549H63.4123C63.4284 14.083 63.4445 13.8486 63.4445 13.5518C63.4445 11.7549 62.3025 9.70801 59.4395 9.70801C56.6891 9.70801 55.4345 11.7549 55.4345 13.7549C55.4345 15.7393 56.8499 17.833 59.6003 17.833C61.5948 17.833 63.1389 16.7393 63.4606 15.0361H61.2731ZM59.4395 11.3018C60.5171 11.3018 61.1444 12.0049 61.2088 12.8799H57.6219C57.815 11.7861 58.4262 11.3018 59.4395 11.3018Z" fill="#101828"/>
<path d="M69.308 11.6455V9.83301H68.1544C67.1733 9.83301 66.5621 10.1611 66.1278 11.1455V9.83301H63.876V17.708H66.1278V13.8799C66.1278 12.5361 66.6264 11.6455 67.7362 11.6455H69.308Z" fill="#101828"/>
<path d="M77.0285 9.83301H74.7766V14.1455C74.7766 15.1455 74.085 15.8955 73.1039 15.8955C72.1871 15.8955 71.5437 15.208 71.5437 14.2549V9.83301H69.308V14.7393C69.308 16.5361 70.4982 17.833 72.3157 17.833C73.4256 17.833 74.3263 17.3643 74.7766 16.6143V17.708H77.0285V9.83301Z" fill="#101828"/>
<path d="M77.9936 17.708H80.2294V6.41113H77.9936V17.708Z" fill="#101828"/>
<path d="M86.6122 15.0361C86.4353 15.708 85.8402 16.0518 84.9394 16.0518C83.8135 16.0518 83.0897 15.3643 82.9289 14.2549H88.7514C88.7675 14.083 88.7836 13.8486 88.7836 13.5518C88.7836 11.7549 87.6416 9.70801 84.7786 9.70801C82.0282 9.70801 80.7736 11.7549 80.7736 13.7549C80.7736 15.7393 82.189 17.833 84.9394 17.833C86.9339 17.833 88.478 16.7393 88.7997 15.0361H86.6122ZM84.7786 11.3018C85.8562 11.3018 86.4835 12.0049 86.5479 12.8799H82.9611C83.1541 11.7861 83.7653 11.3018 84.7786 11.3018Z" fill="#101828"/>
</svg>
