<svg width="44" height="44" viewBox="0 0 44 44" fill="none" xmlns="http://www.w3.org/2000/svg">
<path d="M30.3571 13.5357C32.6071 15.7857 34 18.7321 34 21.9464C34 28.4821 28.5357 33.8393 21.9464 33.8393C19.9643 33.8393 18.0357 33.3036 16.2679 32.3929L10 34L11.6607 27.8393C10.6429 26.0714 10.0536 24.0357 10.0536 21.8929C10.0536 15.3571 15.4107 10 21.9464 10C25.1607 10 28.1607 11.2857 30.3571 13.5357ZM21.9464 31.8036C27.4107 31.8036 31.9643 27.3571 31.9643 21.9464C31.9643 19.2679 30.8393 16.8036 28.9643 14.9286C27.0893 13.0536 24.625 12.0357 22 12.0357C16.5357 12.0357 12.0893 16.4821 12.0893 21.8929C12.0893 23.7679 12.625 25.5893 13.5893 27.1964L13.8571 27.5714L12.8393 31.2143L16.5893 30.1964L16.9107 30.4107C18.4643 31.3214 20.1786 31.8036 21.9464 31.8036ZM27.4107 24.4107C27.6786 24.5714 27.8929 24.625 27.9464 24.7857C28.0536 24.8929 28.0536 25.4821 27.7857 26.1786C27.5179 26.875 26.3393 27.5179 25.8036 27.5714C24.8393 27.7321 24.0893 27.6786 22.2143 26.8214C19.2143 25.5357 17.2857 22.5357 17.125 22.375C16.9643 22.1607 15.9464 20.7679 15.9464 19.2679C15.9464 17.8214 16.6964 17.125 16.9643 16.8036C17.2321 16.4821 17.5536 16.4286 17.7679 16.4286C17.9286 16.4286 18.1429 16.4286 18.3036 16.4286C18.5179 16.4286 18.7321 16.375 19 16.9643C19.2143 17.5536 19.8571 19 19.9107 19.1607C19.9643 19.3214 20.0179 19.4821 19.9107 19.6964C19.375 20.8214 18.7321 20.7679 19.0536 21.3036C20.2321 23.2857 21.3571 23.9821 23.125 24.8393C23.3929 25 23.5536 24.9464 23.7679 24.7857C23.9286 24.5714 24.5179 23.875 24.6786 23.6071C24.8929 23.2857 25.1071 23.3393 25.375 23.4464C25.6429 23.5536 27.0893 24.25 27.4107 24.4107Z" fill="white"/>
</svg>
