<svg width="28" height="28" viewBox="0 0 28 28" fill="none" xmlns="http://www.w3.org/2000/svg">
<path fill-rule="evenodd" clip-rule="evenodd" d="M4.72962 1.9912e-06C4.74669 2.99256e-06 4.76382 3.99392e-06 4.781 3.99392e-06L7.87039 1.9912e-06C8.42428 -3.05529e-05 8.9227 -5.97581e-05 9.33718 0.0343607C9.7812 0.0712342 10.2527 0.154735 10.7134 0.394057C11.3527 0.726121 11.8739 1.24734 12.2059 1.88659C12.4453 2.34731 12.5288 2.81881 12.5656 3.26282C12.6001 3.6773 12.6 4.17571 12.6 4.7296V7.87041C12.6 8.42429 12.6001 8.92271 12.5656 9.33718C12.5288 9.7812 12.4453 10.2527 12.2059 10.7134C11.8739 11.3527 11.3527 11.8739 10.7134 12.2059C10.2527 12.4453 9.7812 12.5288 9.33718 12.5656C8.92271 12.6001 8.42429 12.6 7.87041 12.6H4.72959C4.17571 12.6 3.6773 12.6001 3.26282 12.5656C2.81881 12.5288 2.34731 12.4453 1.88659 12.2059C1.24734 11.8739 0.726121 11.3527 0.394057 10.7134C0.154735 10.2527 0.0712342 9.7812 0.0343607 9.33718C-5.97581e-05 8.92271 -3.05529e-05 8.42428 1.9912e-06 7.87039L3.99392e-06 4.781C3.99392e-06 4.76382 2.99256e-06 4.74669 1.9912e-06 4.72962C-3.05529e-05 4.17572 -5.97581e-05 3.6773 0.0343607 3.26282C0.0712342 2.81881 0.154735 2.34731 0.394057 1.88659C0.726121 1.24734 1.24734 0.726121 1.88659 0.394057C2.34731 0.154735 2.81881 0.0712342 3.26282 0.0343607C3.6773 -5.97581e-05 4.17572 -3.05529e-05 4.72962 1.9912e-06ZM3.18852 2.87416C3.18116 2.87683 3.17802 2.87845 3.17732 2.87881C3.04947 2.94523 2.94523 3.04947 2.87881 3.17732C2.87845 3.17802 2.87683 3.18116 2.87416 3.18852C2.87137 3.19619 2.86674 3.21037 2.86121 3.23345C2.84958 3.28198 2.83576 3.36203 2.82475 3.49455C2.80113 3.77905 2.8 4.15954 2.8 4.781V7.819C2.8 8.44047 2.80113 8.82096 2.82475 9.10545C2.83576 9.23797 2.84958 9.31803 2.86121 9.36656C2.86674 9.38963 2.87137 9.40382 2.87416 9.41148C2.87683 9.41885 2.87845 9.42199 2.87881 9.42268C2.94523 9.55053 3.04947 9.65478 3.17732 9.72119C3.17802 9.72155 3.18116 9.72317 3.18852 9.72585C3.19619 9.72864 3.21037 9.73327 3.23345 9.7388C3.28198 9.75043 3.36203 9.76425 3.49455 9.77525C3.77905 9.79888 4.15954 9.8 4.781 9.8H7.819C8.44047 9.8 8.82096 9.79888 9.10545 9.77525C9.23797 9.76425 9.31803 9.75043 9.36656 9.7388C9.38963 9.73327 9.40382 9.72864 9.41148 9.72585C9.41885 9.72317 9.42199 9.72155 9.42268 9.72119C9.55053 9.65478 9.65478 9.55053 9.72119 9.42268C9.72155 9.42199 9.72317 9.41885 9.72585 9.41148C9.72864 9.40382 9.73327 9.38963 9.7388 9.36656C9.75043 9.31803 9.76425 9.23797 9.77525 9.10545C9.79888 8.82096 9.8 8.44047 9.8 7.819V4.781C9.8 4.15954 9.79888 3.77905 9.77525 3.49455C9.76425 3.36203 9.75043 3.28198 9.7388 3.23345C9.73327 3.21037 9.72864 3.19619 9.72585 3.18852C9.72317 3.18116 9.72155 3.17802 9.72119 3.17732C9.65478 3.04947 9.55053 2.94523 9.42268 2.87881C9.42199 2.87845 9.41885 2.87683 9.41148 2.87416C9.40382 2.87137 9.38963 2.86674 9.36656 2.86121C9.31803 2.84958 9.23797 2.83576 9.10545 2.82475C8.82096 2.80113 8.44047 2.8 7.819 2.8H4.781C4.15954 2.8 3.77905 2.80113 3.49455 2.82475C3.36203 2.83576 3.28198 2.84958 3.23345 2.86121C3.21037 2.86674 3.19619 2.87137 3.18852 2.87416ZM20.1296 1.9912e-06H23.2704C23.8243 -3.05529e-05 24.3227 -5.97581e-05 24.7372 0.0343607C25.1812 0.0712342 25.6527 0.154735 26.1134 0.394057C26.7527 0.726122 27.2739 1.24734 27.6059 1.88659C27.8453 2.34731 27.9288 2.81881 27.9656 3.26282C28.0001 3.67731 28 4.17574 28 4.72965V7.87036C28 8.42426 28.0001 8.9227 27.9656 9.33718C27.9288 9.7812 27.8453 10.2527 27.6059 10.7134C27.2739 11.3527 26.7527 11.8739 26.1134 12.2059C25.6527 12.4453 25.1812 12.5288 24.7372 12.5656C24.3227 12.6001 23.8243 12.6 23.2704 12.6H20.1296C19.5757 12.6 19.0773 12.6001 18.6628 12.5656C18.2188 12.5288 17.7473 12.4453 17.2866 12.2059C16.6473 11.8739 16.1261 11.3527 15.7941 10.7134C15.5547 10.2527 15.4712 9.7812 15.4344 9.33718C15.3999 8.92271 15.4 8.42429 15.4 7.87041V4.72959C15.4 4.17571 15.3999 3.6773 15.4344 3.26282C15.4712 2.81881 15.5547 2.34731 15.7941 1.88659C16.1261 1.24734 16.6473 0.726121 17.2866 0.394057C17.7473 0.154735 18.2188 0.0712342 18.6628 0.0343607C19.0773 -5.97581e-05 19.5757 -3.05529e-05 20.1296 1.9912e-06ZM18.5885 2.87416C18.5812 2.87683 18.578 2.87845 18.5773 2.87881C18.4495 2.94523 18.3452 3.04947 18.2788 3.17732C18.2785 3.17802 18.2768 3.18116 18.2742 3.18852C18.2714 3.19619 18.2667 3.21037 18.2612 3.23345C18.2496 3.28198 18.2358 3.36203 18.2248 3.49455C18.2011 3.77905 18.2 4.15954 18.2 4.781V7.819C18.2 8.44047 18.2011 8.82096 18.2248 9.10545C18.2358 9.23798 18.2496 9.31803 18.2612 9.36656C18.2667 9.38964 18.2714 9.40382 18.2742 9.41148C18.2768 9.41885 18.2785 9.42199 18.2788 9.42268C18.3452 9.55053 18.4495 9.65478 18.5773 9.72119C18.578 9.72155 18.5812 9.72317 18.5885 9.72585C18.5962 9.72864 18.6104 9.73327 18.6334 9.7388C18.682 9.75043 18.762 9.76425 18.8946 9.77525C19.179 9.79888 19.5595 9.8 20.181 9.8H23.219C23.8405 9.8 24.221 9.79888 24.5054 9.77525C24.638 9.76425 24.718 9.75043 24.7666 9.7388C24.7896 9.73327 24.8038 9.72864 24.8115 9.72585C24.8188 9.72317 24.822 9.72155 24.8227 9.72119C24.9505 9.65478 25.0548 9.55054 25.1212 9.42268C25.1215 9.42199 25.1232 9.41884 25.1258 9.41148C25.1286 9.40382 25.1333 9.38963 25.1388 9.36656C25.1504 9.31803 25.1642 9.23797 25.1752 9.10545C25.1989 8.82096 25.2 8.44047 25.2 7.819V4.781C25.2 4.15954 25.1989 3.77905 25.1752 3.49455C25.1642 3.36203 25.1504 3.28198 25.1388 3.23345C25.1333 3.21037 25.1286 3.19619 25.1258 3.18852C25.1232 3.18116 25.1215 3.17802 25.1212 3.17732C25.0548 3.04947 24.9505 2.94523 24.8227 2.87881C24.822 2.87845 24.8188 2.87683 24.8115 2.87416C24.8038 2.87137 24.7896 2.86674 24.7666 2.86121C24.718 2.84958 24.638 2.83576 24.5054 2.82475C24.221 2.80113 23.8405 2.8 23.219 2.8H20.181C19.5595 2.8 19.179 2.80113 18.8946 2.82475C18.762 2.83576 18.682 2.84958 18.6334 2.86121C18.6104 2.86674 18.5962 2.87137 18.5885 2.87416ZM4.72959 15.4H7.87041C8.42429 15.4 8.92271 15.3999 9.33718 15.4344C9.7812 15.4712 10.2527 15.5547 10.7134 15.7941C11.3527 16.1261 11.8739 16.6473 12.2059 17.2866C12.4453 17.7473 12.5288 18.2188 12.5656 18.6628C12.6001 19.0773 12.6 19.5757 12.6 20.1296V23.2704C12.6 23.8243 12.6001 24.3227 12.5656 24.7372C12.5288 25.1812 12.4453 25.6527 12.2059 26.1134C11.8739 26.7527 11.3527 27.2739 10.7134 27.6059C10.2527 27.8453 9.7812 27.9288 9.33718 27.9656C8.9227 28.0001 8.42426 28 7.87036 28H4.72965C4.17574 28 3.67731 28.0001 3.26282 27.9656C2.81881 27.9288 2.34731 27.8453 1.88659 27.6059C1.24734 27.2739 0.726122 26.7527 0.394057 26.1134C0.154735 25.6527 0.0712342 25.1812 0.0343607 24.7372C-5.97581e-05 24.3227 -3.05529e-05 23.8243 1.9912e-06 23.2704V20.1296C-3.05529e-05 19.5757 -5.97581e-05 19.0773 0.0343607 18.6628C0.0712342 18.2188 0.154735 17.7473 0.394057 17.2866C0.726121 16.6473 1.24734 16.1261 1.88659 15.7941C2.34731 15.5547 2.81881 15.4712 3.26282 15.4344C3.6773 15.3999 4.17571 15.4 4.72959 15.4ZM3.18852 18.2742C3.18116 18.2768 3.17802 18.2785 3.17732 18.2788C3.04947 18.3452 2.94523 18.4495 2.87881 18.5773C2.87845 18.578 2.87683 18.5812 2.87416 18.5885C2.87137 18.5962 2.86674 18.6104 2.86121 18.6334C2.84958 18.682 2.83576 18.762 2.82475 18.8946C2.80113 19.179 2.8 19.5595 2.8 20.181V23.219C2.8 23.8405 2.80113 24.221 2.82475 24.5054C2.83576 24.638 2.84958 24.718 2.86121 24.7666C2.86674 24.7896 2.87137 24.8038 2.87416 24.8115C2.87683 24.8188 2.87845 24.822 2.87881 24.8227C2.94523 24.9505 3.04947 25.0548 3.17732 25.1212C3.17802 25.1215 3.18116 25.1232 3.18852 25.1258C3.19619 25.1286 3.21037 25.1333 3.23345 25.1388C3.28198 25.1504 3.36203 25.1642 3.49455 25.1752C3.77905 25.1989 4.15954 25.2 4.781 25.2H7.819C8.44047 25.2 8.82096 25.1989 9.10545 25.1752C9.23797 25.1642 9.31803 25.1504 9.36656 25.1388C9.38963 25.1333 9.40382 25.1286 9.41148 25.1258C9.41884 25.1232 9.42199 25.1215 9.42268 25.1212C9.55054 25.0548 9.65478 24.9505 9.72119 24.8227C9.72155 24.822 9.72317 24.8188 9.72585 24.8115C9.72864 24.8038 9.73327 24.7896 9.7388 24.7666C9.75043 24.718 9.76425 24.638 9.77525 24.5054C9.79888 24.221 9.8 23.8405 9.8 23.219V20.181C9.8 19.5595 9.79888 19.179 9.77525 18.8946C9.76425 18.762 9.75043 18.682 9.7388 18.6334C9.73327 18.6104 9.72864 18.5962 9.72585 18.5885C9.72317 18.5812 9.72155 18.578 9.72119 18.5773C9.65478 18.4495 9.55053 18.3452 9.42268 18.2788C9.42237 18.2786 9.42155 18.2782 9.42006 18.2776C9.41826 18.2768 9.4155 18.2756 9.41148 18.2742C9.40382 18.2714 9.38964 18.2667 9.36656 18.2612C9.31803 18.2496 9.23798 18.2358 9.10545 18.2248C8.82096 18.2011 8.44047 18.2 7.819 18.2H4.781C4.15954 18.2 3.77905 18.2011 3.49455 18.2248C3.36203 18.2358 3.28198 18.2496 3.23345 18.2612C3.21037 18.2667 3.19619 18.2714 3.18852 18.2742ZM20.1296 15.4H23.2704C23.8243 15.4 24.3227 15.3999 24.7372 15.4344C25.1812 15.4712 25.6527 15.5547 26.1134 15.7941C26.7527 16.1261 27.2739 16.6473 27.6059 17.2866C27.8453 17.7473 27.9288 18.2188 27.9656 18.6628C28.0001 19.0773 28 19.5757 28 20.1296V23.2704C28 23.8243 28.0001 24.3227 27.9656 24.7372C27.9288 25.1812 27.8453 25.6527 27.6059 26.1134C27.2739 26.7527 26.7527 27.2739 26.1134 27.6059C25.6527 27.8453 25.1812 27.9288 24.7372 27.9656C24.3227 28.0001 23.8243 28 23.2704 28H20.1296C19.5757 28 19.0773 28.0001 18.6628 27.9656C18.2188 27.9288 17.7473 27.8453 17.2866 27.6059C16.6473 27.2739 16.1261 26.7527 15.7941 26.1134C15.5547 25.6527 15.4712 25.1812 15.4344 24.7372C15.3999 24.3227 15.4 23.8243 15.4 23.2704V20.1296C15.4 19.5757 15.3999 19.0773 15.4344 18.6628C15.4712 18.2188 15.5547 17.7473 15.7941 17.2866C16.1261 16.6473 16.6473 16.1261 17.2866 15.7941C17.7473 15.5547 18.2188 15.4712 18.6628 15.4344C19.0773 15.3999 19.5757 15.4 20.1296 15.4ZM18.5885 18.2742C18.5812 18.2768 18.578 18.2785 18.5773 18.2788C18.4495 18.3452 18.3452 18.4495 18.2788 18.5773C18.2785 18.578 18.2768 18.5812 18.2742 18.5885C18.2714 18.5962 18.2667 18.6104 18.2612 18.6334C18.2496 18.682 18.2358 18.762 18.2248 18.8945C18.2011 19.179 18.2 19.5595 18.2 20.181V23.219C18.2 23.8405 18.2011 24.221 18.2248 24.5054C18.2358 24.638 18.2496 24.718 18.2612 24.7666C18.2667 24.7896 18.2714 24.8038 18.2742 24.8115C18.2768 24.8188 18.2785 24.822 18.2788 24.8227C18.3452 24.9505 18.4495 25.0548 18.5773 25.1212C18.578 25.1215 18.5812 25.1232 18.5885 25.1258C18.5962 25.1286 18.6104 25.1333 18.6334 25.1388C18.682 25.1504 18.762 25.1642 18.8946 25.1752C19.179 25.1989 19.5595 25.2 20.181 25.2H23.219C23.8405 25.2 24.221 25.1989 24.5054 25.1752C24.638 25.1642 24.718 25.1504 24.7666 25.1388C24.7896 25.1333 24.8038 25.1286 24.8115 25.1258C24.8188 25.1232 24.822 25.1215 24.8227 25.1212C24.9505 25.0548 25.0548 24.9505 25.1212 24.8227C25.1215 24.822 25.1232 24.8188 25.1258 24.8115C25.1286 24.8038 25.1333 24.7896 25.1388 24.7666C25.1504 24.718 25.1642 24.638 25.1752 24.5054C25.1989 24.221 25.2 23.8405 25.2 23.219V20.181C25.2 19.5595 25.1989 19.179 25.1752 18.8946C25.1642 18.762 25.1504 18.682 25.1388 18.6334C25.1333 18.6104 25.1286 18.5962 25.1258 18.5885C25.1249 18.5859 25.1241 18.5838 25.1234 18.5821C25.1222 18.5792 25.1214 18.5778 25.1212 18.5773C25.0548 18.4495 24.9505 18.3452 24.8227 18.2788C24.822 18.2785 24.8188 18.2768 24.8115 18.2742C24.8038 18.2714 24.7896 18.2667 24.7666 18.2612C24.718 18.2496 24.638 18.2358 24.5054 18.2248C24.221 18.2011 23.8405 18.2 23.219 18.2H20.181C19.5595 18.2 19.179 18.2011 18.8945 18.2248C18.762 18.2358 18.682 18.2496 18.6334 18.2612C18.6104 18.2667 18.5962 18.2714 18.5885 18.2742Z" fill="white"/>
</svg>
